<svg xmlns="http://www.w3.org/2000/svg" viewBox="0 0 32 32"><g id="hanger"><path d="M29.13,21.5l-9.56-6.33a1,1,0,0,0-1.1,1.66L27.77,23H4.23l12.32-8.17s0,0,.07-.06a1,1,0,0,0,.14-.15.72.72,0,0,0,.11-.15,1,1,0,0,0,.07-.18,1.29,1.29,0,0,0,0-.19s0-.07,0-.1V13a3.5,3.5,0,0,0-.47-7,3.46,3.46,0,0,0-3.11,1.92l-.31.63a1,1,0,1,0,1.78.9l.32-.64A1.47,1.47,0,0,1,16.53,8a1.5,1.5,0,0,1,0,3H16a1,1,0,0,0-1,1v1.46l-12.13,8a1.84,1.84,0,0,0-.79,2.09,2,2,0,0,0,2,1.41H27.92a2,2,0,0,0,2-1.41A1.84,1.84,0,0,0,29.13,21.5Z"/></g></svg>